HIERARCHY
ROOT Hips
{
	OFFSET 0.000000 0.000000 0.000000 
	CHANNELS 6 Xposition Yposition Zposition Zrotation Xrotation Yrotation
	JOINT Spine
	{
		OFFSET -0.000000 8.061080 0.000000 
		CHANNELS 3 Zrotation Xrotation Yrotation
		JOINT Spine1
		{
			OFFSET -0.000000 20.532677 0.000000 
			CHANNELS 3 Zrotation Xrotation Yrotation
			JOINT Neck
			{
				OFFSET -0.000000 22.498795 0.000000 
				CHANNELS 3 Zrotation Xrotation Yrotation
				JOINT Head
				{
					OFFSET -0.000000 15.237408 1.966117 
					CHANNELS 3 Zrotation Xrotation Yrotation
					End Site
					{
						OFFSET -0.000000 19.661171 0.000000 
					}
				}
			}
			JOINT LeftShoulder
			{
				OFFSET 3.894675 16.042269 -0.398189 
				CHANNELS 3 Zrotation Xrotation Yrotation
				JOINT LeftArm
				{
					OFFSET 19.709621 0.000000 0.000000 
					CHANNELS 3 Zrotation Xrotation Yrotation
					JOINT LeftForeArm
					{
						OFFSET 25.566900 0.000000 0.000000 
						CHANNELS 3 Zrotation Xrotation Yrotation
						JOINT LeftHand
						{
							OFFSET 25.401896 0.000000 0.000000 
							CHANNELS 3 Zrotation Xrotation Yrotation
							End Site
							{
								OFFSET 14.745877 0.000000 0.000000 
							}
						}
					}
				}
			}
			JOINT RightShoulder
			{
				OFFSET -3.930777 16.042269 -0.398189 
				CHANNELS 3 Zrotation Xrotation Yrotation
				JOINT RightArm
				{
					OFFSET -19.709621 0.000000 0.000000 
					CHANNELS 3 Zrotation Xrotation Yrotation
					JOINT RightForeArm
					{
						OFFSET -25.566900 0.000000 0.000000 
						CHANNELS 3 Zrotation Xrotation Yrotation
						JOINT RightHand
						{
							OFFSET -25.401896 0.000000 0.000000 
							CHANNELS 3 Zrotation Xrotation Yrotation
							End Site
							{
								OFFSET -14.745877 0.000000 0.000000 
							}
						}
					}
				}
			}
		}
	}
	JOINT LeftUpLeg
	{
		OFFSET 9.830585 0.000000 0.000000 
		CHANNELS 3 Zrotation Xrotation Yrotation
		JOINT LeftLeg
		{
			OFFSET -0.000000 -46.474842 0.000000 
			CHANNELS 3 Zrotation Xrotation Yrotation
			JOINT LeftFoot
			{
				OFFSET -0.000000 -30.290520 0.000000 
				CHANNELS 3 Zrotation Xrotation Yrotation
				JOINT LeftToeBase
				{
					OFFSET -0.000000 -6.389880 14.745877 
					CHANNELS 3 Zrotation Xrotation Yrotation
					End Site
					{
						OFFSET -0.000000 0.000000 3.932234 
					}
				}
			}
		}
	}
	JOINT RightUpLeg
	{
		OFFSET -9.830585 0.000000 0.000000 
		CHANNELS 3 Zrotation Xrotation Yrotation
		JOINT RightLeg
		{
			OFFSET -0.000000 -46.474842 0.000000 
			CHANNELS 3 Zrotation Xrotation Yrotation
			JOINT RightFoot
			{
				OFFSET -0.000000 -30.290520 0.000000 
				CHANNELS 3 Zrotation Xrotation Yrotation
				JOINT RightToeBase
				{
					OFFSET -0.000000 -6.389880 14.745877 
					CHANNELS 3 Zrotation Xrotation Yrotation
					End Site
					{
						OFFSET -0.000000 0.000000 3.932234 
					}
				}
			}
		}
	}
}
MOTION
Frames: 10
Frame Time: 0.010000
-2.055231 80.690384 19.188530 -4.115871 2.464685 5.390419 0.951096 -4.954773 -0.290211 1.312160 1.413068 -0.127569 3.894576 11.364616 -0.749359 -1.296158 9.886438 0.410440 2.981856 10.413179 -0.032426 -63.051277 29.208670 -23.195868 -13.814215 0.236503 -3.176540 2.810737 0.035847 7.510240 -7.551383 11.865419 -11.869226 55.990860 55.220444 36.771488 4.168090 -13.410742 6.095030 -4.359840 -13.668484 1.132014 10.910905 13.252317 8.909037 3.599227 4.620278 -3.671334 -3.261142 -16.156698 -2.527111 0.000000 0.000000 0.000000 -19.006079 -22.637093 7.944309 0.000000 0.000000 0.000000 0.000000 0.000000 0.000000 0.000000 0.000000 0.000000 
-2.493570 80.549568 19.852348 -3.966034 2.406966 5.618891 0.930645 -4.866834 -0.390676 1.262108 1.355324 -0.159214 3.895485 11.316940 -0.726087 -1.331812 9.687593 0.438181 2.985579 10.435085 -0.030424 -63.044701 29.148954 -23.184803 -13.783023 0.204812 -3.187449 2.814494 0.003457 7.481915 -7.554296 11.905797 -11.900000 56.027287 55.299351 36.697422 4.144075 -13.443132 6.079683 -4.344022 -13.698521 1.121899 11.113926 13.576303 8.839398 3.715407 4.727945 -3.676203 -3.554855 -16.192369 -2.670505 0.000000 0.000000 0.000000 -19.254274 -22.537636 7.542953 0.000000 0.000000 0.000000 0.000000 0.000000 0.000000 0.000000 0.000000 0.000000 
-2.946890 80.408989 20.526833 -3.809452 2.353218 5.854792 0.905117 -4.774361 -0.495652 1.216574 1.289350 -0.192473 3.885318 11.266525 -0.699056 -1.363566 9.493650 0.466997 2.981458 10.459077 -0.024414 -63.041462 29.082539 -23.171392 -13.748429 0.172305 -3.197933 2.818214 -0.029896 7.452159 -7.564740 11.944810 -11.926654 56.071209 55.371834 36.616146 4.126300 -13.467749 6.067882 -4.330498 -13.721256 1.110904 11.323385 13.886639 8.756816 3.836177 4.845108 -3.676177 -3.850655 -16.203619 -2.824322 0.000000 0.000000 0.000000 -19.496376 -22.425484 7.137601 0.000000 0.000000 0.000000 0.000000 0.000000 0.000000 0.000000 0.000000 0.000000 
-3.415265 80.269226 21.211395 -3.646716 2.304212 6.097203 0.882928 -4.680014 -0.601433 1.158768 1.219443 -0.225783 3.876235 11.211072 -0.671344 -1.393755 9.304195 0.495567 2.980886 10.483397 -0.018694 -63.042534 29.008255 -23.156044 -13.711416 0.138718 -3.208338 2.822085 -0.064050 7.421264 -7.573464 11.980666 -11.953693 56.125072 55.436047 36.526600 4.115208 -13.483107 6.059414 -4.319738 -13.735188 1.098963 11.539289 14.181074 8.661217 3.961608 4.972960 -3.670867 -4.147614 -16.189690 -2.988772 0.000000 0.000000 0.000000 -19.730505 -22.302053 6.727603 0.000000 0.000000 0.000000 0.000000 0.000000 0.000000 0.000000 0.000000 0.000000 
-3.898726 80.130966 21.905369 -3.478502 2.260889 6.345072 0.861784 -4.583331 -0.708698 1.094141 1.143786 -0.259613 3.863947 11.151656 -0.641834 -1.421230 9.119846 0.524568 2.979856 10.508859 -0.011387 -63.047935 28.925655 -23.138126 -13.671328 0.104366 -3.218483 2.825899 -0.099200 7.389249 -7.583703 12.013686 -11.979049 56.189861 55.490467 36.427902 4.111454 -13.488375 6.054580 -4.312097 -13.739539 1.085934 11.761595 14.457192 8.552494 4.091415 5.112585 -3.659783 -4.444345 -16.149761 -3.163898 0.000000 0.000000 0.000000 -19.954750 -22.169094 6.312519 0.000000 0.000000 0.000000 0.000000 0.000000 0.000000 0.000000 0.000000 0.000000 
-4.397263 79.994858 22.608044 -3.305614 2.224176 6.597281 0.842345 -4.484960 -0.817016 1.022328 1.062599 -0.293640 3.848452 11.088119 -0.610419 -1.445768 8.941024 0.554022 2.978468 10.535467 -0.002379 -63.057907 28.834265 -23.117567 -13.628025 0.068973 -3.228219 2.829680 -0.135055 7.356233 -7.595540 12.043617 -12.002630 56.266575 55.533562 36.319580 4.115695 -13.482598 6.053691 -4.307944 -13.733393 1.071665 11.990134 14.712523 8.430829 4.225551 5.265248 -3.642643 -4.739666 -16.083521 -3.349765 0.000000 0.000000 0.000000 -20.167053 -22.028437 5.891519 0.000000 0.000000 0.000000 0.000000 0.000000 0.000000 0.000000 0.000000 0.000000 
-4.910798 79.861610 23.318645 -3.128889 2.195003 6.852612 0.825074 -4.385423 -0.925755 0.943277 0.975825 -0.327886 3.829510 11.020602 -0.577179 -1.466971 8.768022 0.584040 2.976626 10.563204 0.008593 -63.072842 28.733505 -23.093987 -13.581326 0.032659 -3.237467 2.833479 -0.171644 7.322276 -7.608984 12.070240 -12.024071 56.356071 55.563934 36.201180 4.128422 -13.464991 6.056922 -4.307716 -13.715998 1.055937 12.224600 14.944628 8.296485 4.363725 5.432077 -3.619138 -5.032217 -15.990604 -3.546310 0.000000 0.000000 0.000000 -20.365376 -21.882074 5.463998 0.000000 0.000000 0.000000 0.000000 0.000000 0.000000 0.000000 0.000000 0.000000 
-5.439200 79.731972 24.036354 -2.949301 2.174291 7.109785 0.810593 -4.285455 -1.034181 0.856907 0.883713 -0.362238 3.807278 10.949194 -0.541931 -1.484946 8.600997 0.614710 2.974290 10.592093 0.021620 -63.092937 28.622917 -23.067419 -13.531098 -0.004509 -3.246186 2.837265 -0.209057 7.287576 -7.624267 12.093312 -12.043203 56.458580 55.581005 36.073124 4.149694 -13.435226 6.064043 -4.311497 -13.687026 1.038774 12.464584 15.151042 8.149878 4.505715 5.614285 -3.589061 -5.320635 -15.870956 -3.753353 0.000000 0.000000 0.000000 -20.547588 -21.732098 5.029307 0.000000 0.000000 0.000000 0.000000 0.000000 0.000000 0.000000 0.000000 0.000000 
-5.982283 79.606682 24.760311 -2.767900 2.162904 7.367460 0.799806 -4.185432 -1.141939 0.762667 0.785831 -0.396482 3.781761 10.874348 -0.504255 -1.499230 8.440161 0.645977 2.971543 10.622387 0.037143 -63.118488 28.502357 -23.037794 -13.476873 -0.042729 -3.254136 2.840846 -0.247249 7.252069 -7.641176 12.112892 -12.059389 56.575012 55.583191 35.934849 4.179979 -13.392492 6.075248 -4.319721 -13.645673 1.019990 12.709613 15.329420 7.991659 4.651079 5.813065 -3.552348 -5.603317 -15.724965 -3.970556 0.000000 0.000000 0.000000 -20.711531 -21.580620 4.586895 0.000000 0.000000 0.000000 0.000000 0.000000 0.000000 0.000000 0.000000 0.000000 
-6.539770 79.486511 25.489586 -2.585764 2.161776 7.624256 0.792994 -4.086675 -1.248226 0.661098 0.683395 -0.430165 3.753197 10.795943 -0.464605 -1.510198 8.285255 0.677998 2.968301 10.653507 0.054624 -63.149986 28.370983 -23.004808 -13.418767 -0.081664 -3.261578 2.844413 -0.286144 7.216205 -7.659832 12.128435 -12.072951 56.704651 55.570053 35.787327 4.219536 -13.336644 6.090607 -4.332659 -13.591850 0.999430 12.958965 15.477350 7.822524 4.799423 6.029594 -3.508916 -5.879031 -15.553206 -4.197437 0.000000 0.000000 0.000000 -20.855156 -21.429968 4.136345 0.000000 0.000000 0.000000 0.000000 0.000000 0.000000 0.000000 0.000000 0.000000 
